<?xml version="1.0" encoding="UTF-8" standalone="no"?>
<!-- Created with Inkscape (http://www.inkscape.org/) -->

<svg
   xmlns:dc="http://purl.org/dc/elements/1.1/"
   xmlns:cc="http://creativecommons.org/ns#"
   xmlns:rdf="http://www.w3.org/1999/02/22-rdf-syntax-ns#"
   xmlns:svg="http://www.w3.org/2000/svg"
   xmlns="http://www.w3.org/2000/svg"
   xmlns:xlink="http://www.w3.org/1999/xlink"
   xmlns:sodipodi="http://sodipodi.sourceforge.net/DTD/sodipodi-0.dtd"
   xmlns:inkscape="http://www.inkscape.org/namespaces/inkscape"
   id="svg3336"
   version="1.1"
   inkscape:version="0.91 r13725"
   width="200"
   height="265"
   viewBox="0 0 200 265"
   sodipodi:docname="1.svg">
  <metadata
     id="metadata3342">
    <rdf:RDF>
      <cc:Work
         rdf:about="">
        <dc:format>image/svg+xml</dc:format>
        <dc:type
           rdf:resource="http://purl.org/dc/dcmitype/StillImage" />
        <dc:title></dc:title>
      </cc:Work>
    </rdf:RDF>
  </metadata>
  <defs
     id="defs3340" />
  <sodipodi:namedview
     pagecolor="#ffffff"
     bordercolor="#666666"
     borderopacity="1"
     objecttolerance="10"
     gridtolerance="10"
     guidetolerance="10"
     inkscape:pageopacity="0"
     inkscape:pageshadow="2"
     inkscape:window-width="1366"
     inkscape:window-height="705"
     id="namedview3338"
     showgrid="false"
     inkscape:zoom="2.0226415"
     inkscape:cx="100"
     inkscape:cy="132.5"
     inkscape:window-x="-8"
     inkscape:window-y="-8"
     inkscape:window-maximized="1"
     inkscape:current-layer="svg3336" />

  <path
     style="fill:#963737"
     d="m 0,230.56645 c 0,-34.43356 0,-34.43356 2.9419666,-39.25 2.821264,-4.61884 5.0415893,-13.26335 5.0727752,-19.75011 0.00811,-1.68649 0.6345772,-4.19134 1.3921539,-5.56634 9.0799223,-16.48004 9.6176503,-18.5237 6.6150663,-25.1408 -1.534723,-3.38222 -1.98296,-6.56589 -2,-14.20529 -0.01345,-6.02936 -0.646332,-11.99385 -1.632659,-15.3867 -1.077681,-3.70709 -1.404731,-7.23271 -0.988298,-10.65391 1.62625,-13.360401 3.857636,-27.493504 4.909453,-31.095374 0.639564,-2.190141 1.028065,-4.777641 0.863335,-5.75 C 17.009063,62.795567 17.319611,62 17.8639,62 19.236762,62 22,56.197726 22,53.314977 c 0,-1.307761 0.675,-2.636768 1.5,-2.953351 0.825,-0.316582 1.5,-1.666582 1.5,-3 0,-1.333417 0.675,-2.683417 1.5,-3 C 27.325,44.045044 28,43.159167 28,42.393011 28,41.626855 28.419676,41 28.932612,41 c 0.512937,0 1.200253,-0.843262 1.52737,-1.873915 C 34.777165,25.523846 56.088248,11.211327 71,11.899417 c 9.838607,0.453994 14.055284,0.395695 22.5,-0.311079 24.69191,-2.0665701 38.61186,5.127861 55.7365,28.807029 2.34493,3.242451 5.64542,7.753284 7.33444,10.024072 5.35507,7.199594 13.42698,24.272032 13.42856,28.40199 2.7e-4,0.726785 0.6755,1.996428 1.5005,2.821428 1.08369,1.083693 1.5,3.723501 1.5,9.51151 0,4.406331 0.73021,14.480433 1.62269,22.386893 1.61143,14.27563 1.60796,14.40365 -0.5,18.44786 -3.21719,6.1723 -2.68592,9.93896 2.50032,17.72709 1.17795,1.76891 2.44825,4.91891 2.82289,7 0.37464,2.08108 1.82476,6.67849 3.22249,10.21646 2.08358,5.27399 2.46005,7.61562 2.09006,13 -0.24821,3.61203 0.16919,11.96733 0.92754,18.56733 0.80538,7.00926 1.11306,15.11921 0.73981,19.5 -0.74128,8.70011 0.69317,15.45812 3.61278,17.02065 1.08385,0.58006 3.37478,3.85021 5.09095,7.267 1.71617,3.41679 3.5141,6.36235 3.99539,6.54568 0.48129,0.18334 0.87508,3.89584 0.87508,8.25 C 200,265 200,265 179.57258,265 c -20.42742,0 -20.42742,0 -22.48912,-2.75 -1.13393,-1.5125 -2.45572,-3.22834 -2.93731,-3.81299 -1.78761,-2.17014 -2.91953,-5.14978 -5.10453,-13.43701 -1.23261,-4.675 -2.80282,-9.175 -3.48936,-10 -0.68654,-0.825 -1.55736,-2.36521 -1.93515,-3.4227 -0.65422,-1.83128 -0.7633,-1.81359 -2.29405,0.37186 -2.3409,3.3421 -3.51953,0.64662 -3.43983,-7.8667 0.0416,-4.43711 -0.43376,-7.43008 -1.3781,-8.67781 -0.79284,-1.04756 -1.45583,-2.94371 -1.47333,-4.21367 -0.0176,-1.27882 -0.47796,-2.03327 -1.0318,-1.69098 -0.55,0.33992 -1,0.16944 -1,-0.37883 0,-0.54828 -0.9,-0.92908 -2,-0.84622 -1.1,0.0829 -2,0.55738 -2,1.05449 0,0.4971 -0.82957,0.68689 -1.84348,0.42174 -1.10878,-0.28995 -2.30778,0.26138 -3.00848,1.38337 -0.64074,1.026 -1.89907,1.86545 -2.79627,1.86545 -1.79165,0 -3.90369,2.2652 -5.36121,5.75 -0.51758,1.2375 -1.7971,2.25 -2.84336,2.25 -1.04627,0 -2.4584,0.67005 -3.13806,1.48899 -1.71288,2.0639 -3.00914,0.9548 -3.00914,-2.57466 0,-5.66346 -5.24643,-9.89673 -12.410678,-10.01401 -7.293034,-0.11938 -4.120993,-1.63864 3.759549,-1.80064 6.490079,-0.13342 11.048559,-2.4698 15.476499,-7.93224 2.02104,-2.49323 5.63887,-6.36336 8.03962,-8.60029 2.40074,-2.23693 4.7624,-5.10673 5.24813,-6.37732 0.48572,-1.2706 1.33398,-2.03154 1.88501,-1.69099 0.55243,0.34143 1.03729,-0.41663 1.08082,-1.68982 0.0434,-1.26996 0.30592,-1.74652 0.58333,-1.05902 0.27741,0.6875 1.03955,1.25 1.69365,1.25 1.66846,0 4.86244,-6.26737 4.14575,-8.13501 -0.32598,-0.84951 0.076,-2.09956 0.89337,-2.77789 0.81734,-0.67833 1.23747,-1.88116 0.93363,-2.67295 -0.30384,-0.79179 -0.11371,-1.99639 0.4225,-2.67688 0.89533,-1.13625 2.31669,-11.02286 2.6219,-18.23727 0.0698,-1.65 0.54701,-3.65316 1.06045,-4.45147 2.2287,-3.46521 1.93256,-22.32677 -0.43702,-27.83501 -2.38236,-5.53794 -3.08065,-5.867 -8.99651,-4.23947 -4.98146,1.37046 -21.84139,1.79022 -21.38568,0.53244 1.15325,-3.18298 -1.72844,-3.91809 -4.23572,-1.08052 -2.20158,2.49159 -2.86696,2.75014 -4.482,1.74153 -1.48408,-0.92683 -1.91189,-0.91072 -1.96689,0.074 -0.0387,0.69216 -0.49206,0.35847 -1.007567,-0.74153 -0.762717,-1.6275 -0.875009,-1.39468 -0.602908,1.25 0.183909,1.7875 -0.03768,3.25 -0.492428,3.25 -0.454744,0 -0.79704,-1.2375 -0.760658,-2.75 0.08341,-3.4676 3.778101,-14.52219 3.867701,-11.57225 0.0621,2.04398 0.41352,2.14189 5.72154,1.59406 4.51261,-0.46575 5.49174,-0.31889 4.8455,0.72676 -0.54022,0.87408 -0.42004,1.06949 0.36091,0.58684 0.64395,-0.39798 0.94358,-1.0913 0.66583,-1.5407 -0.27774,-0.4494 1.99977,-1.13004 5.06114,-1.51253 5.82945,-0.72835 5.8976,-0.70132 14.91712,5.91595 1.23623,0.90698 2.53241,1.14624 3.37811,0.62356 1.99357,-1.23209 0.43205,-3.05895 -2.69302,-3.15064 -1.48004,-0.0434 -2.19388,-0.28412 -1.58632,-0.53488 1.27332,-0.52556 0.64754,-5.230681 -0.96587,-7.262175 C 129.48335,94.41 114.51601,96.885952 109.88985,100.72175 107.65357,102.57598 103,100.77165 103,98.050401 c 0,-4.100483 16.09068,-9.905048 25.29855,-9.126222 3.0062,0.254273 3.59822,-16.133904 0.64869,-17.956817 -0.74753,-0.461998 -0.80235,-0.938902 -0.154,-1.339606 0.55372,-0.342217 1.00676,-2.228467 1.00676,-4.191666 0,-1.963199 0.25216,-3.821611 0.56035,-4.129803 C 133.20149,58.465176 116.71336,41.285143 107.41812,37.401341 99.653465,34.157062 73.742752,37.079339 63.666048,42.335813 46.93597,51.062994 41.69481,60.461331 41.267728,82.5 40.990024,96.83031 39.970825,104.53719 37.961596,107.5 33.866842,113.53812 33.105584,125.37459 36,138 c 2.025826,8.83663 2.499325,13.23799 1.234687,11.4769 -0.404078,-0.5627 -1.95772,-1.8011 -3.452539,-2.75199 -1.58772,-1.00998 -2.494963,-2.30973 -2.181826,-3.12575 0.294814,-0.76827 0.113352,-1.65809 -0.403249,-1.97736 -2.232802,-1.37995 -2.13051,7.8172 0.114174,10.26538 1.528585,1.66716 1.81173,2.52174 0.938753,2.83333 C 30.813898,155.23309 30.535936,158 31.920545,158 c 0.506299,0 1.230213,-1.40991 1.608698,-3.13314 0.461994,-2.10345 0.947907,-2.71285 1.47853,-1.85428 0.434708,0.70337 1.510794,1.0024 2.391302,0.66452 C 38.626815,153.20597 39,153.7012 39,155.80148 c 0,11.12079 5.279105,21.20303 17.513784,33.44852 4.808253,4.8125 8.266807,8.75 7.685676,8.75 -0.581132,0 -1.73031,-0.67371 -2.55373,-1.49713 -2.266276,-2.26627 -4.860948,-0.8076 -4.222699,2.37392 3.620306,18.04638 4.551392,41.4615 1.575554,39.62234 -0.425719,-0.26311 -2.032859,2.10445 -3.571423,5.26124 -1.538564,3.1568 -5.159526,8.05362 -8.046582,10.88183 -4.905413,4.80543 -7.09679,5.96459 -17.451578,9.23125 C 27.964953,264.49305 20.427453,265 13.179002,265 0,265 0,265 0,230.56645 Z M 141.66667,158.33333 C 141.3,157.96667 141,158.26667 141,159 c 0,0.73333 0.3,1.03333 0.66667,0.66667 0.36666,-0.36667 0.36666,-0.96667 0,-1.33334 z m -67.328574,47.80406 c -2.289048,-0.91038 -5.305061,-2.88872 -6.702251,-4.39631 -3.127217,-3.37432 -1.616681,-3.57556 2.680877,-0.35715 1.750803,1.31117 4.155141,2.67859 5.342973,3.03873 2.148857,0.65151 5.376616,3.6714 3.71275,3.47365 -0.479845,-0.057 -2.745302,-0.84854 -5.034349,-1.75892 z m 20.995237,-31.80406 c 0.366667,-0.36666 0.966667,-0.36666 1.333334,0 C 97.033333,174.7 96.733333,175 96,175 c -0.733333,0 -1.033333,-0.3 -0.666667,-0.66667 z M 100,174.24055 c 0,-0.4177 1.0054,-1.38734 2.23423,-2.15475 2.17536,-1.35854 2.18194,-1.41475 0.25,-2.13322 -1.56478,-0.58192 -1.66714,-0.84602 -0.48423,-1.24931 0.825,-0.28127 2.4,-0.84423 3.5,-1.25101 1.1,-0.40679 2.9,-0.78746 4,-0.84594 1.37141,-0.0729 2.09446,-0.91896 2.30056,-2.69192 0.44754,-3.85001 -1.96229,-5.37045 -6.63291,-4.18492 -6.416604,1.6287 -13.076222,-0.22091 -10.40679,-2.89034 C 95.890935,155.70907 123,155.05772 123,156.16065 c 0,1.50325 -12.21722,14.81048 -15.4076,16.78224 -3.29014,2.03342 -7.5924,2.76874 -7.5924,1.29766 z m -19.5,-1.25563 c -2.919347,-1.29663 -7.196893,-4.9367 -5.831787,-4.96268 C 76.799007,167.98168 79,169.19691 79,170.41395 c 0,0.65998 1.2375,1.68896 2.75,2.28663 1.5125,0.59766 2.3,1.10601 1.75,1.12965 -0.55,0.0237 -1.9,-0.35674 -3,-0.84531 z m 6.5,-2.36834 c 0,-0.21089 1.125,-0.59848 2.5,-0.86133 1.375,-0.26285 2.5,-0.0903 2.5,0.38342 C 92,170.6124 90.875,171 89.5,171 88.125,171 87,170.82746 87,170.61658 Z m 7.61183,-0.43564 c -0.278413,-0.45048 0.82003,-0.6244 2.440983,-0.3865 1.620953,0.23791 2.947187,0.60648 2.947187,0.81906 0,0.76198 -4.892655,0.3692 -5.38817,-0.43256 z M 69.25,165.87182 C 67.4625,164.7343 66,163.277 66,162.63339 c 0,-1.19425 16.860329,-4.68822 22.45,-4.65233 4.398703,0.0282 1.843068,1.91017 -3.501665,2.57857 C 78.934579,161.31169 75,162.94143 75,164.68034 c 0,0.79073 -0.415943,1.18063 -0.924318,0.86643 -0.508375,-0.31419 -1.070875,0.0958 -1.25,0.911 -0.269684,1.2274 -0.884492,1.12665 -3.575682,-0.58595 z m -6.767925,-13.85346 c 2.138384,-2.18991 4.111452,-3.75817 4.384595,-3.48502 C 67.523361,149.19003 60.8966,156 59.600885,156 c -0.553729,0 0.742806,-1.79174 2.88119,-3.98164 z m 30.064733,1.12319 c -1.664565,-0.69054 -1.442907,-0.91529 1.5,-1.52095 3.008625,-0.61918 3.219288,-0.84483 1.636333,-1.75274 -1.641373,-0.94142 -1.365627,-1.4683 2.8549,-5.45497 C 103.16892,140.03861 105,139.07153 105,141 c 0,1.79181 1.8486,1.05237 2.5,-1 0.96576,-3.04283 2.5,-2.38707 2.5,1.06855 0,6.7616 -11.342851,14.60786 -17.453192,12.073 z M 91.5,149 c -0.339919,-0.55 -0.141476,-1 0.440983,-1 C 92.523442,148 93,148.45 93,149 c 0,0.55 -0.198442,1 -0.440983,1 -0.242541,0 -0.719098,-0.45 -1.059017,-1 z m -11,-1.96295 c -1.69353,-0.69636 -1.758264,-0.9217 -0.422449,-1.47053 C 81.61108,144.93646 87,146.42235 87,147.47525 c 0,0.78502 -4.216465,0.50077 -6.5,-0.4382 z m 21.19461,-11.67577 C 100.66454,134.33121 100.85272,131 101.94098,131 c 0.51754,0 1.2169,0.44644 1.55413,0.99208 0.77259,1.25009 -0.8616,4.30809 -1.8005,3.3692 z M 72.5,120 c 0.339919,-0.55 0.843034,-1 1.118034,-1 0.275,0 0.221885,0.45 -0.118034,1 -0.339919,0.55 -0.843034,1 -1.118034,1 -0.275,0 -0.221885,-0.45 0.118034,-1 z m -24.397233,-2.82434 c -3.397233,-0.32434 -3.397233,-0.32434 1.30841,-4.64459 4.519801,-4.14963 9.723896,-6.37101 10.422156,-4.44872 0.183334,0.50471 0.956711,0.91765 1.718616,0.91765 0.820519,0 1.150615,-0.61153 0.809677,-1.5 -0.316582,-0.825 -0.07746,-1.5 0.531385,-1.5 C 63.501855,106 64,106.76101 64,107.69113 c 0,1.58635 0.07745,1.58656 1.25,0.003 1.603014,-2.16434 7.516195,-0.74712 10.350091,2.48063 1.872531,2.13277 1.871089,2.15345 -0.100091,1.43514 -1.604601,-0.58473 -1.752876,-0.47986 -0.75,0.53043 1.54801,1.55946 1.660215,4.23081 0.138197,3.29015 -0.611492,-0.37792 -1.4446,-0.14866 -1.85135,0.50948 -0.721575,1.16753 -17.129399,1.98041 -24.93408,1.23528 z M 58.808333,114.925 C 58.61125,114.33375 58.0225,113.85 57.5,113.85 c -0.5225,0 -1.11125,0.48375 -1.308333,1.075 C 55.994583,115.51625 56.583333,116 57.5,116 c 0.916667,0 1.505417,-0.48375 1.308333,-1.075 z m 12.973969,-0.7705 c 0.286576,-0.86063 -0.194252,-1.221 -1.334268,-1 -0.980266,0.19002 -1.983917,0.95098 -2.230336,1.691 -0.286576,0.86063 0.194252,1.221 1.334268,1 0.980266,-0.19002 1.983917,-0.95098 2.230336,-1.691 z m -30.72985,-6.3394 c -0.124554,-6.37562 8.659225,-14.69864 12.817762,-12.145392 0.912638,0.560339 2.851193,0.668174 4.405547,0.245066 3.831795,-1.043048 14.702952,0.635271 16.635344,2.568209 2.842701,2.843507 -0.458485,3.538857 -13.559584,2.856137 -13.342576,-0.6953 -13.622286,-0.59485 -18.549069,6.66088 -1.697548,2.5 -1.697548,2.5 -1.75,-0.1849 z"
     id="path3346"
     inkscape:connector-curvature="0" />
</svg>
